<svg width="22" height="22" viewBox="0 0 22 22" fill="none" xmlns="http://www.w3.org/2000/svg">
<path d="M11.9166 10.2207H6.41663" stroke="#212121" stroke-width="1.5" stroke-linecap="round" stroke-linejoin="round"/>
<path d="M1.83337 10.221V5.98602C1.83337 4.11602 3.34588 2.60352 5.21588 2.60352H10.3675C12.2375 2.60352 13.75 3.76768 13.75 5.63768" stroke="#212121" stroke-width="1.5" stroke-linecap="round" stroke-linejoin="round"/>
<path d="M16.0234 11.1835C15.565 11.6235 15.345 12.3018 15.5284 12.9985C15.7575 13.851 16.6009 14.3919 17.4809 14.3919H18.3334V15.721C18.3334 17.7469 16.6925 19.3877 14.6667 19.3877H5.50004C3.47421 19.3877 1.83337 17.7469 1.83337 15.721V9.30436C1.83337 7.27853 3.47421 5.6377 5.50004 5.6377H14.6667C16.6834 5.6377 18.3334 7.2877 18.3334 9.30436V10.6335H17.3434C16.83 10.6335 16.3625 10.8352 16.0234 11.1835Z" stroke="#212121" stroke-width="1.5" stroke-linecap="round" stroke-linejoin="round"/>
<path d="M20.1667 11.5683V13.4567C20.1667 13.97 19.745 14.3917 19.2225 14.3917H17.4533C16.4633 14.3917 15.5558 13.6675 15.4733 12.6775C15.4183 12.1 15.6383 11.5592 16.0233 11.1833C16.3625 10.835 16.83 10.6333 17.3433 10.6333H19.2225C19.745 10.6333 20.1667 11.055 20.1667 11.5683Z" stroke="#212121" stroke-width="1.5" stroke-linecap="round" stroke-linejoin="round"/>
</svg>
